<mxfile host="app.diagrams.net" modified="2025-07-09T21:21:13.071Z" agent="Mozilla/5.0 (Windows NT 10.0; Win64; x64) AppleWebKit/537.36 (KHTML, like Gecko) Chrome/134.0.0.0 Safari/537.36 OPR/119.0.0.0" version="24.4.13" etag="glNX5kFmrmraojKIk1Qq" type="github">
  <diagram name="Page-1" id="nKPsZtVxVQk-SOslxJPo">
    <mxGraphModel>
      <root>
        <mxCell id="0" />
        <mxCell id="1" parent="0" />
      </root>
    </mxGraphModel>
  </diagram>
</mxfile>
